<?xml version="1.0" encoding="UTF-8"?>
<!DOCTYPE svg PUBLIC "-//W3C//DTD SVG 1.1//EN" "http://www.w3.org/Graphics/SVG/1.1/DTD/svg11.dtd">
<!-- Creator: CorelDRAW X7 -->
<svg xmlns="http://www.w3.org/2000/svg" xml:space="preserve" width="210mm" height="28.3036mm" version="1.1" style="shape-rendering:geometricPrecision; text-rendering:geometricPrecision; image-rendering:optimizeQuality; fill-rule:evenodd; clip-rule:evenodd"
viewBox="0 0 21026 2834"
 xmlns:xlink="http://www.w3.org/1999/xlink">
 <defs>
  <style type="text/css">
   <![CDATA[
    .fil0 {fill:#4D4D4D}
    .fil1 {fill:#B11226}
    .fil3 {fill:#4D4D4D;fill-rule:nonzero}
    .fil2 {fill:#B11226;fill-rule:nonzero}
   ]]>
  </style>
 </defs>
 <g id="Layer_x0020_1">
  <metadata id="CorelCorpID_0Corel-Layer"/>
  <g id="_3209865409312">
   <path class="fil0" d="M15566 90l0 2744 652 0 286 0c523,0 913,-124 1168,-373 255,-249 382,-586 382,-1013 0,-426 -130,-759 -392,-999 -262,-239 -637,-359 -1127,-359l-969 0 0 0zm652 2202l0 -1668 302 0c311,0 542,72 692,218 151,145 226,352 226,622 0,269 -75,475 -226,616 -150,142 -365,212 -645,212l-349 0z"/>
   <path class="fil1" d="M0 90l653 0 842 0c518,0 943,425 943,944l0 0c0,519 -425,943 -943,943l-842 0 0 857 -653 0 0 -857 0 -1887zm653 565l693 0c212,0 449,146 449,379 0,232 -237,378 -449,378l-693 0 0 -757z"/>
   <polygon class="fil1" points="2558,90 2558,2834 3211,2834 3211,90 "/>
   <polygon class="fil2" points="8634,2834 8494,2834 8381,2606 7684,1188 7684,2834 7643,2834 7386,2834 7031,2834 7031,90 7684,90 7859,90 8566,1597 8625,1472 9276,90 9448,90 10101,90 10101,2834 9488,2834 9448,2834 9448,1188 8957,2180 8897,2303 "/>
   <path class="fil2" d="M6076 551c-113,0 -202,25 -268,74 -65,50 -97,115 -97,197 0,82 39,147 119,195 80,48 264,105 553,171 288,66 512,164 672,296 159,131 239,323 239,574 0,252 -102,457 -307,614 -90,69 -194,123 -310,162l-1030 0c-274,-78 -530,-219 -767,-422l473 -528c957,775 1528,220 982,-52 -146,-73 -333,-112 -459,-145 -275,-72 -481,-160 -620,-266 -164,-124 -246,-320 -246,-587 0,-266 104,-472 311,-617 208,-145 466,-217 777,-217 203,0 406,32 609,96 203,65 380,156 530,274l-343 458c-264,-185 -537,-277 -818,-277z"/>
   <polygon class="fil2" points="11824,2834 11684,2834 11571,2606 10874,1188 10874,2834 10833,2834 10576,2834 10221,2834 10221,90 10874,90 11049,90 11756,1597 12087,2303 12336,2834 "/>
   <path class="fil2" d="M3984 1173l996 -1083 757 0 -1091 1213c94,131 268,375 522,732 254,357 444,624 569,799l-714 0 -805 -1084 -234 262 0 822 -41 0 -612 0 0 -2744 0 0 653 0 0 1083z"/>
   <polygon class="fil3" points="12651,1188 12160,2180 11828,1472 12479,90 12651,90 13303,90 13303,2834 12691,2834 12651,2834 "/>
   <polygon class="fil3" points="15402,90 15402,636 14076,636 14076,1201 15265,1201 15265,1723 14076,1723 14076,2292 15445,2292 15445,2834 14076,2834 13424,2834 13424,90 13424,90 "/>
   <path class="fil3" d="M20375 2834l-255 -593 -1151 0 -255 593 -651 0 1185 -2744 593 0 1185 2744 -651 0zm-828 -1928l-346 797 687 0 -341 -797z"/>
   <polygon class="fil0" points="17949,90 17949,2834 18601,2834 18601,90 "/>
  </g>
 </g>
</svg>
