<?xml version="1.0" encoding="UTF-8"?>
<!DOCTYPE svg PUBLIC "-//W3C//DTD SVG 1.1//EN" "http://www.w3.org/Graphics/SVG/1.1/DTD/svg11.dtd">
<!-- Creator: CorelDRAW X7 -->
<svg xmlns="http://www.w3.org/2000/svg" xml:space="preserve" width="25.4869cm" height="3.44327cm" version="1.1" style="shape-rendering:geometricPrecision; text-rendering:geometricPrecision; image-rendering:optimizeQuality; fill-rule:evenodd; clip-rule:evenodd"
viewBox="0 0 7931 1071"
 xmlns:xlink="http://www.w3.org/1999/xlink">
 <defs>
  <style type="text/css">
   <![CDATA[
    .fil0 {fill:#B3B3B3}
   ]]>
  </style>
 </defs>
 <g id="Layer_x0020_1">
  <metadata id="CorelCorpID_0Corel-Layer"/>
  <path class="fil0" d="M5899 62l0 982 326 0c147,0 312,-26 421,-133 43,-42 76,-92 98,-147l54 -133 0 413 243 0 96 -224 470 0 96 224 186 0 -423 -982 -188 0 -289 672 0 -672 -191 0 0 403 -53 -129c-23,-56 -57,-105 -102,-146 -109,-100 -262,-128 -406,-128l-338 0zm1474 211l171 399 -344 0 173 -399zm-1283 621l0 -686 141 0c99,0 207,19 281,90 70,68 93,160 93,255 0,95 -23,187 -94,254 -71,67 -167,87 -262,87l-159 0zm-308 -832l-691 0 0 982 707 0 0 -150 -516 0 0 -270 448 0 0 -142 -448 0 0 -269 500 0 0 -151zm-983 982l191 0 0 -982 -265 0 -233 495 95 203 212 -429 0 713zm-3324 -982l-191 0 0 982 191 0 0 -294 118 -132 316 426 605 0c38,-13 73,-32 105,-56 5,-4 10,-8 15,-12l46 -40 0 108 191 0 0 -714 350 714 18 0 352 -713 0 713 191 0 0 -982 -265 0 -286 607 -284 -607 -267 0 0 73 -41 -22c-38,-21 -77,-37 -118,-50 -71,-23 -146,-35 -221,-35 -65,0 -131,9 -192,32l-5 2 -213 0 -415 453 0 -453zm547 688l-67 75 -28 -40c-66,-92 -131,-184 -197,-276l-13 -18 198 -220 3 67c4,69 24,134 81,177 62,47 151,76 224,96 61,16 122,29 179,57 29,14 58,34 76,61 16,23 23,50 17,77 -7,31 -30,53 -58,66 -33,16 -72,20 -109,17 -108,-9 -219,-72 -306,-139zm572 -475l86 -114 0 449 -45 -34c-66,-52 -153,-81 -234,-100 -45,-10 -91,-21 -135,-35 -26,-8 -58,-19 -81,-33 -36,-22 -59,-54 -59,-97 0,-40 17,-73 48,-97 34,-25 76,-33 118,-33 110,0 211,35 302,94zm2015 769l-459 -982 -267 0 0 982 191 0 0 -714 350 714 185 0zm-3616 -982l0 982 190 0 0 -982 -190 0zm-965 0l0 982 190 0 0 -324 346 0c180,0 328,-148 328,-329 0,-181 -148,-329 -328,-329l-536 0zm190 158l290 0c95,0 197,67 197,171 0,103 -102,171 -197,171l-290 0 0 -342zm5653 -186l0 1037 246 0 108 0c198,0 344,-47 441,-141 45,-44 80,-96 104,-156l0 297 43 0 203 0 43 0 96 -224 434 0 96 224 246 0 -447 -1037 -224 0 -244 566 0 -566 -246 0 0 291c-25,-60 -61,-112 -108,-155 -99,-91 -240,-136 -425,-136l-366 0 0 0zm1502 309l-131 301 260 0 -129 -301zm-1563 -309l0 206 -501 0 0 214 449 0 0 197 -449 0 0 216 517 0 0 204 -517 0 -246 0 0 -1037 0 0 747 0zm-1038 415l-185 375 -126 -268 246 -522 65 0 246 0 0 1037 -231 0 -15 0 0 -622zm-3269 -6l375 -409 220 0c59,-23 127,-34 202,-34 77,0 153,12 230,36 44,14 85,32 122,53l0 -55 246 0 66 0 267 570 22 -48 246 -522 65 0 246 0 0 1037 -231 0 -15 0 0 -622 -185 375 -23 47 -99 200 -53 0 -43 -86 -263 -536 0 622 -15 0 -97 0 -134 0 0 -74c-5,4 -11,9 -16,13 -35,26 -74,47 -117,61l-355 0 -34 0 -235 0 -304 -409 -88 99 0 310 -16 0 -231 0 0 -1037 0 0 247 0 0 409zm387 -104l-138 154c36,49 102,141 197,276l9 12 61 -69c361,293 576,84 370,-20 -55,-27 -125,-42 -173,-54 -103,-28 -181,-61 -233,-101 -57,-43 -88,-109 -93,-198zm2570 732l-53 0 -42 -86 -264 -536 0 622 -15 0 -97 0 -134 0 0 -1037 246 0 67 0 266 570 125 267 94 200 -193 0zm-2168 -863c-43,0 -76,10 -101,28 -25,19 -37,44 -37,75 0,31 15,55 45,74 30,18 100,39 208,64 104,24 186,59 245,105l0 -310 -52 69c-99,-70 -202,-105 -308,-105zm-1327 -174l0 1037 246 0 0 -1037 -246 0zm-965 0l246 0 318 0c195,0 356,161 356,357l0 0c0,196 -161,357 -356,357l-318 0 0 323 -246 0 0 -323 0 -714zm246 214l262 0c80,0 169,55 169,143 0,88 -89,143 -169,143l-262 0 0 -286zm5871 619l0 -631 114 0c118,0 205,27 261,82 57,55 86,134 86,235 0,102 -29,180 -86,234 -56,53 -138,80 -243,80l-132 0z"/>
 </g>
</svg>
