<?xml version="1.0" encoding="UTF-8"?>
<!DOCTYPE svg PUBLIC "-//W3C//DTD SVG 1.1//EN" "http://www.w3.org/Graphics/SVG/1.1/DTD/svg11.dtd">
<!-- Creator: CorelDRAW X7 -->
<svg xmlns="http://www.w3.org/2000/svg" xml:space="preserve" width="181.977mm" height="89.9708mm" version="1.1" style="shape-rendering:geometricPrecision; text-rendering:geometricPrecision; image-rendering:optimizeQuality; fill-rule:evenodd; clip-rule:evenodd"
viewBox="0 0 18224 9010"
 xmlns:xlink="http://www.w3.org/1999/xlink">
 <defs>
  <style type="text/css">
   <![CDATA[
    .fil1 {fill:#333333}
    .fil0 {fill:#4D4D4D}
    .fil2 {fill:#B11226}
    .fil4 {fill:#4D4D4D;fill-rule:nonzero}
    .fil3 {fill:#B11226;fill-rule:nonzero}
   ]]>
  </style>
 </defs>
 <g id="Layer_x0020_1">
  <metadata id="CorelCorpID_0Corel-Layer"/>
  <g id="_3209865409728">
   <g>
    <path class="fil0" d="M4384 1837c-59,0 -82,-12 -137,21 -42,26 -119,73 -173,112 -60,45 -199,136 -279,275 -79,139 -146,226 -168,276 -21,50 -15,94 -18,138 -2,43 -21,80 -41,95 -19,15 -80,91 -111,155 -32,65 -85,172 -82,238 3,56 53,98 72,105 12,5 32,-17 18,-29 -13,-13 -58,-34 -53,-55 5,-21 36,-38 61,-34 25,5 39,11 51,3 12,-8 46,-41 52,-78 5,-37 8,-150 57,-239 49,-88 112,-96 101,-126 -11,-30 -33,-14 -36,-47 -4,-33 4,-118 14,-103 9,15 7,72 28,56 21,-16 43,-38 91,-37 48,2 89,1 89,1 0,0 27,-2 20,12 -5,10 -35,53 -63,91 -25,34 -49,46 -53,47 -14,6 -53,14 -66,35 -20,37 -8,43 -12,53 53,76 123,158 201,207 45,27 103,54 151,65 156,36 164,199 153,300 37,-18 96,-33 203,-36 -5,-25 -10,-55 -14,-73 -5,-33 17,-63 45,-93 90,-97 282,-418 314,-566 24,-107 32,-230 20,-310 -11,-77 -35,-146 -34,-157 1,-8 9,-16 13,-5 225,623 -357,1032 -334,1134 5,26 10,49 13,69 8,0 17,0 25,0 269,0 339,2 482,-50 143,-52 387,-27 450,1 29,13 56,35 77,54 10,-22 23,-50 42,-84 100,-181 315,-383 578,-499 41,-18 69,-40 107,-1 -237,79 -407,226 -520,359 -129,150 -166,267 -166,267 0,0 -135,373 -68,748l0 0c57,113 127,208 227,302 98,91 143,110 143,110 0,0 3,16 -11,11 -171,-73 -310,-259 -409,-390 -85,63 -288,232 -688,662 -294,317 -508,539 -655,680 -180,172 -225,292 -479,365 -34,10 -141,-32 -186,-24 -213,38 -365,274 0,319l513 63c203,25 190,-79 351,-160 160,-82 93,11 189,-30 94,-40 40,-82 100,-176l-18 0c-81,-3 -161,-7 -250,-34 -57,-18 -75,-15 -87,-20 -101,-43 217,-5 222,-4 60,12 121,14 181,9 144,-114 554,-315 818,-463 302,-170 437,-277 560,-346 123,-69 145,-82 268,-106 122,-23 302,-133 300,-215 -3,-141 212,-490 489,-794 267,-293 594,-547 707,-492 3,2 -857,533 -863,857 0,0 138,77 428,109 102,11 253,23 354,8 39,-6 76,-15 112,-12 386,31 610,177 1238,55 711,-139 755,-403 1164,-497 336,-78 705,51 839,100 42,16 1,-13 -5,-18 -105,-74 -672,-666 -372,-430 417,327 731,787 1131,1002 261,141 709,378 1156,442 447,65 1028,175 1118,213 40,17 93,41 142,68 5,-12 10,-25 14,-37 25,-69 33,-224 52,-259 58,-113 11,236 10,238 -8,31 -17,61 -26,89 38,25 69,53 84,82 40,74 65,130 129,233 65,102 78,131 73,164 -5,33 -61,88 -98,88 -37,0 -111,-54 -163,-35 -53,19 -152,174 -149,222 3,49 43,122 203,122l420 0c115,0 277,-254 257,-309 -5,-12 -19,-47 -40,-96 -73,-178 -223,-536 -261,-636 -49,-127 -129,-417 -164,-465 -36,-48 -55,-84 -167,-47 -113,37 -357,-24 -489,-122 -132,-97 -321,-198 -494,-519 -10,-18 -21,-38 -34,-59 -3,5 -6,10 -9,16 -15,36 3,144 25,238 23,98 44,148 93,236 9,14 16,29 21,46 31,107 -42,8 -106,-143 -73,-168 -90,-338 -105,-517 -251,-361 -718,-902 -790,-978 254,-18 1084,86 1511,44 559,-55 829,-393 805,-679 -20,-244 -168,-403 -358,-536 -292,-204 -768,-350 -906,-700 -87,-222 -13,-457 235,-578 157,-76 347,-65 532,-51 342,25 463,-94 425,-185 -37,-91 -22,-220 -176,-135 -115,63 -259,56 -396,62 -760,38 -1186,794 -526,1315 379,298 1044,590 880,897 -190,355 -888,318 -1219,229 -373,-100 -1491,-418 -1827,-466 -187,-27 -749,-130 -1245,-72 -292,34 -543,104 -789,134 101,126 250,312 293,345 62,47 279,291 36,93 -145,-119 -285,-298 -385,-432 -152,14 -304,11 -464,-29 -437,-107 -1048,-198 -1287,-292 -239,-95 -252,-296 -793,-230 -171,21 -264,29 -320,30 105,430 -250,834 -101,540 67,-131 88,-405 36,-543 -50,-7 -60,-23 -220,-20 -305,6 -856,19 -1070,63 -214,44 -385,114 -395,113 -9,0 -6,-196 -64,-206 -57,-10 -333,197 -325,278zm-651 980c-7,5 -16,12 -29,21 -31,20 -69,63 -83,103 -23,69 -17,122 -27,158 -11,36 -10,60 -38,77 -29,16 -77,96 -60,136 16,40 94,98 160,113 28,6 48,11 62,17 125,-58 297,-143 337,-266 24,-77 -52,-103 -121,-146 -78,-49 -145,-140 -201,-213zm3 636c5,5 8,12 9,20 4,26 22,118 71,147 50,30 143,26 201,11 80,-19 110,-148 159,-193 18,-17 31,-37 59,-55 3,-46 4,-107 -16,-166 -14,-45 -81,-144 -137,-101 -2,2 6,42 -8,83 -31,86 -219,210 -338,254zm3098 839c0,9 151,369 337,665 186,296 255,422 269,595 14,173 2,327 -56,357 -59,30 -114,0 -153,0 -39,0 -167,-47 -249,13 -82,61 -103,148 -79,211 7,17 22,25 43,27 49,5 343,58 555,20 175,-31 241,96 303,-66 26,-67 40,-145 95,-229 79,-120 179,-221 162,-317 -6,-35 -28,-89 -53,-152 -26,18 -56,36 -91,54 -150,79 -155,85 -147,65 11,-24 65,-79 131,-122 28,-19 56,-38 84,-58 -36,-97 -68,-210 -61,-312 14,-197 44,-297 11,-456 -33,-159 -61,-180 -61,-180 0,0 -425,126 -1040,-115zm3339 -296c0,0 -199,377 -200,707 -2,330 105,684 -25,861 -131,176 -348,318 -422,319 -34,1 -70,20 -182,6 -98,-11 -188,8 -202,15 -55,29 -114,85 -164,177 -68,124 168,206 255,204l434 -8c140,-3 266,-159 359,-205 277,-136 386,-106 459,-390 17,-63 54,-151 106,-250 -30,0 -62,-2 -97,-5 -66,-5 -98,9 -118,7 -191,-25 141,-48 151,-48 30,-1 61,-2 91,-3 29,-52 61,-106 96,-162 158,-245 370,-401 567,-561 196,-161 223,-214 223,-214 0,0 -259,-247 -423,-331 -243,-123 -647,-195 -908,-119zm-5645 -2172c30,-82 117,-174 141,-196 24,-22 39,27 47,76 9,50 -10,190 -42,232 -32,43 -76,29 -89,53 -11,21 -15,45 -13,63 1,5 3,7 0,11 -44,47 -73,-159 -44,-239z"/>
    <path class="fil1" d="M10173 3996l648 1080c140,-166 305,-290 460,-416 196,-161 223,-214 223,-214 0,0 -259,-247 -423,-331 -243,-123 -647,-195 -908,-119z"/>
    <path class="fil1" d="M7935 4587c-33,-159 -61,-180 -61,-180 0,0 -297,88 -753,-24l673 1120c24,-27 62,-61 107,-90 28,-19 56,-38 84,-58 -36,-97 -68,-210 -61,-312 14,-197 44,-297 11,-456z"/>
    <path class="fil1" d="M8008 5416c-26,18 -56,36 -91,54 -51,27 -86,46 -108,57l157 263c58,-80 107,-152 95,-222 -6,-35 -28,-89 -53,-152z"/>
   </g>
   <g>
    <path class="fil0" d="M13491 6632l0 2378 566 0 247 0c454,0 791,-108 1013,-323 221,-216 331,-508 331,-878 0,-370 -113,-658 -340,-866 -227,-207 -552,-311 -976,-311l-841 0 0 0zm566 1909l0 -1446 261 0c270,0 470,63 600,188 131,126 196,306 196,540 0,233 -65,411 -196,534 -130,122 -317,184 -559,184l-302 0z"/>
    <path class="fil2" d="M0 6632l566 0 729 0c450,0 818,368 818,818l0 0c0,450 -368,818 -818,818l-729 0 0 742 -566 0 0 -742 0 -1636zm566 490l600 0c184,0 390,126 390,328 0,201 -206,328 -390,328l-600 0 0 -656z"/>
    <polygon class="fil2" points="2217,6632 2217,9010 2783,9010 2783,6632 "/>
    <polygon class="fil3" points="7483,9010 7362,9010 7264,8813 6660,7584 6660,9010 6625,9010 6402,9010 6094,9010 6094,6632 6660,6632 6812,6632 7424,7938 7476,7830 8040,6632 8189,6632 8755,6632 8755,9010 8224,9010 8189,9010 8189,7583 7763,8444 7711,8550 "/>
    <path class="fil3" d="M5266 7031c-98,0 -175,22 -232,65 -56,43 -85,100 -85,171 0,70 35,127 104,169 69,41 229,91 479,148 250,57 444,142 582,256 139,114 208,280 208,498 0,218 -89,396 -266,531 -79,61 -168,108 -269,141l-892 0c-238,-67 -460,-189 -666,-365l410 -458c830,671 1325,191 851,-46 -126,-63 -288,-96 -397,-125 -238,-63 -417,-139 -537,-230 -142,-108 -214,-278 -214,-509 0,-231 90,-409 270,-535 180,-125 404,-188 673,-188 176,0 352,28 528,84 176,55 329,134 460,237l-298 397c-229,-161 -465,-241 -709,-241z"/>
    <polygon class="fil3" points="10248,9010 10126,9010 10029,8813 9424,7584 9424,9010 9390,9010 9167,9010 8859,9010 8859,6632 9424,6632 9577,6632 10189,7938 10476,8550 10692,9010 "/>
    <path class="fil3" d="M3453 7571l863 -939 657 0 -946 1051c82,114 232,325 452,635 220,309 385,540 494,692l-619 0 -698 -939 -203 227 0 712 -35 0 -531 0 0 -2378 0 0 566 0 0 939z"/>
    <polygon class="fil4" points="10965,7583 10539,8444 10251,7830 10816,6632 10965,6632 11530,6632 11530,9010 11000,9010 10965,9010 "/>
    <polygon class="fil4" points="13350,6632 13350,7105 12200,7105 12200,7595 13230,7595 13230,8047 12200,8047 12200,8541 13387,8541 13387,9010 12200,9010 11635,9010 11635,6632 11635,6632 "/>
    <path class="fil4" d="M17659 9010l-221 -514 -997 0 -221 514 -565 0 1028 -2378 514 0 1027 2378 -565 0zm-717 -1670l-300 690 596 0 -296 -690z"/>
    <polygon class="fil0" points="15557,6632 15557,9010 16122,9010 16122,6632 "/>
   </g>
  </g>
 </g>
</svg>
